<svg width="50" height="50" viewBox="0 0 50 50" fill="none" xmlns="http://www.w3.org/2000/svg">
<g clip-path="url(#clip0_23_45)">
<path d="M44 0H6C2.68629 0 0 2.68629 0 6V44C0 47.3137 2.68629 50 6 50H44C47.3137 50 50 47.3137 50 44V6C50 2.68629 47.3137 0 44 0Z" fill="#701FFC"/>
<path d="M18.4886 25.0948C16.669 27.1744 16.3474 29.7049 16.4819 31.4647C16.5457 32.3013 17.3942 32.7624 18.1734 32.4514C18.7372 32.2264 19.3548 31.9456 19.7994 31.6491C21.1103 30.7752 20.6733 29.9013 21.1103 28.5905C21.5473 27.2796 23.4713 26.2133 25.2192 26.6502C26.967 27.0872 27.6646 28.5905 27.6646 29.9013C27.6646 31.2122 27.1127 32.7096 25.4799 33.397C23.6788 34.1551 22.8581 33.397 20.6733 32.96C19.5348 32.7323 18.3963 33.7283 17.7409 34.4503C17.3698 34.8592 17.33 35.4542 17.6519 35.9027C17.8706 36.2074 18.1527 36.5568 18.4886 36.8926C19.3625 37.7665 22.8581 40.3882 26.3538 39.9513C29.8493 39.5143 32.908 36.8926 34.2189 33.8339C35.5298 30.7752 34.6558 27.2796 32.4711 24.6579C30.2863 22.0362 26.3538 21.5992 25.4799 21.5992C24.6059 21.5992 21.5473 21.5992 18.4886 25.0948Z" stroke="white" stroke-linecap="round" stroke-linejoin="round"/>
<path d="M31.8894 23.6505L16.6174 12.3888C16.3158 12.1582 15.8849 12.1836 15.66 12.4894C15.12 13.2239 14.61 14.3883 15.43 15.4817C16.4786 16.8799 20.5277 20.4338 22.4211 22.0359" stroke="white" stroke-linecap="round" stroke-linejoin="round"/>
<path d="M33.4614 26.0086L24.5688 9.3797C24.3876 9.0464 23.9839 8.89381 23.6539 9.08112C22.8611 9.53116 21.9199 10.3861 22.2222 11.7191C22.6089 13.4236 24.1449 16.4617 25.2196 18.6972" stroke="white" stroke-linecap="round" stroke-linejoin="round"/>
<path d="M34.3082 27.4077L33.5888 12.0262C33.5711 11.6475 33.2749 11.3342 32.8965 11.3584C31.9867 11.4165 30.7659 11.7739 30.4552 13.1053C30.0579 14.8074 29.8561 16.4541 29.8456 18.9344" stroke="white" stroke-linecap="round" stroke-linejoin="round"/>
</g>
<defs>
<clipPath id="clip0_23_45">
<rect width="50" height="50" fill="white"/>
</clipPath>
</defs>
</svg>
